<mxfile host="app.diagrams.net" agent="Mozilla/5.0 (Windows NT 10.0; Win64; x64) AppleWebKit/537.36 (KHTML, like Gecko) Chrome/138.0.0.0 Safari/537.36" version="28.0.7">
  <diagram name="PÃ¡gina-1" id="L62GcSV9BQTFNrjWmSib">
    <mxGraphModel dx="1042" dy="578" grid="1" gridSize="10" guides="1" tooltips="1" connect="1" arrows="1" fold="1" page="1" pageScale="1" pageWidth="827" pageHeight="1169" math="0" shadow="0">
      <root>
        <mxCell id="0" />
        <mxCell id="1" parent="0" />
        <mxCell id="vLXWWGmgzCJi9yzpQ47p-3" style="edgeStyle=orthogonalEdgeStyle;rounded=0;orthogonalLoop=1;jettySize=auto;html=1;exitX=0.5;exitY=1;exitDx=0;exitDy=0;entryX=0.5;entryY=0;entryDx=0;entryDy=0;" edge="1" parent="1" source="vLXWWGmgzCJi9yzpQ47p-1" target="vLXWWGmgzCJi9yzpQ47p-2">
          <mxGeometry relative="1" as="geometry" />
        </mxCell>
        <mxCell id="vLXWWGmgzCJi9yzpQ47p-1" value="Create Carrito&lt;div&gt;&lt;b&gt;User&lt;/b&gt;&lt;/div&gt;" style="rounded=0;whiteSpace=wrap;html=1;" vertex="1" parent="1">
          <mxGeometry x="40" y="20" width="130" height="40" as="geometry" />
        </mxCell>
        <mxCell id="vLXWWGmgzCJi9yzpQ47p-7" style="edgeStyle=orthogonalEdgeStyle;rounded=0;orthogonalLoop=1;jettySize=auto;html=1;exitX=0.5;exitY=1;exitDx=0;exitDy=0;entryX=0.5;entryY=0;entryDx=0;entryDy=0;" edge="1" parent="1" source="vLXWWGmgzCJi9yzpQ47p-2" target="vLXWWGmgzCJi9yzpQ47p-6">
          <mxGeometry relative="1" as="geometry" />
        </mxCell>
        <mxCell id="vLXWWGmgzCJi9yzpQ47p-2" value="Add To Firestore" style="rounded=0;whiteSpace=wrap;html=1;" vertex="1" parent="1">
          <mxGeometry x="40" y="110" width="130" height="40" as="geometry" />
        </mxCell>
        <mxCell id="vLXWWGmgzCJi9yzpQ47p-14" style="edgeStyle=orthogonalEdgeStyle;rounded=0;orthogonalLoop=1;jettySize=auto;html=1;exitX=0.5;exitY=1;exitDx=0;exitDy=0;entryX=0.5;entryY=0;entryDx=0;entryDy=0;" edge="1" parent="1" source="vLXWWGmgzCJi9yzpQ47p-6" target="vLXWWGmgzCJi9yzpQ47p-21">
          <mxGeometry relative="1" as="geometry">
            <mxPoint x="105" y="320" as="targetPoint" />
          </mxGeometry>
        </mxCell>
        <mxCell id="vLXWWGmgzCJi9yzpQ47p-16" value="Ok" style="edgeLabel;html=1;align=center;verticalAlign=middle;resizable=0;points=[];" vertex="1" connectable="0" parent="vLXWWGmgzCJi9yzpQ47p-14">
          <mxGeometry x="-0.2989" relative="1" as="geometry">
            <mxPoint as="offset" />
          </mxGeometry>
        </mxCell>
        <mxCell id="vLXWWGmgzCJi9yzpQ47p-19" style="edgeStyle=orthogonalEdgeStyle;rounded=0;orthogonalLoop=1;jettySize=auto;html=1;exitX=0;exitY=0.5;exitDx=0;exitDy=0;entryX=0.5;entryY=0;entryDx=0;entryDy=0;" edge="1" parent="1" source="vLXWWGmgzCJi9yzpQ47p-6" target="vLXWWGmgzCJi9yzpQ47p-18">
          <mxGeometry relative="1" as="geometry" />
        </mxCell>
        <mxCell id="vLXWWGmgzCJi9yzpQ47p-55" value="Fail" style="edgeLabel;html=1;align=center;verticalAlign=middle;resizable=0;points=[];" vertex="1" connectable="0" parent="vLXWWGmgzCJi9yzpQ47p-19">
          <mxGeometry x="-0.3642" y="-1" relative="1" as="geometry">
            <mxPoint as="offset" />
          </mxGeometry>
        </mxCell>
        <mxCell id="vLXWWGmgzCJi9yzpQ47p-43" style="edgeStyle=orthogonalEdgeStyle;rounded=0;orthogonalLoop=1;jettySize=auto;html=1;exitX=1;exitY=0.5;exitDx=0;exitDy=0;entryX=0;entryY=0.5;entryDx=0;entryDy=0;dashed=1;" edge="1" parent="1" source="vLXWWGmgzCJi9yzpQ47p-6" target="vLXWWGmgzCJi9yzpQ47p-42">
          <mxGeometry relative="1" as="geometry" />
        </mxCell>
        <mxCell id="vLXWWGmgzCJi9yzpQ47p-61" value="Ok" style="edgeLabel;html=1;align=center;verticalAlign=middle;resizable=0;points=[];" vertex="1" connectable="0" parent="vLXWWGmgzCJi9yzpQ47p-43">
          <mxGeometry x="-0.7294" y="1" relative="1" as="geometry">
            <mxPoint as="offset" />
          </mxGeometry>
        </mxCell>
        <mxCell id="vLXWWGmgzCJi9yzpQ47p-6" value="State Change" style="rhombus;whiteSpace=wrap;html=1;" vertex="1" parent="1">
          <mxGeometry x="52.5" y="180" width="105" height="90" as="geometry" />
        </mxCell>
        <mxCell id="vLXWWGmgzCJi9yzpQ47p-25" style="edgeStyle=orthogonalEdgeStyle;rounded=0;orthogonalLoop=1;jettySize=auto;html=1;exitX=0.5;exitY=1;exitDx=0;exitDy=0;entryX=0.5;entryY=0;entryDx=0;entryDy=0;" edge="1" parent="1" source="vLXWWGmgzCJi9yzpQ47p-8" target="vLXWWGmgzCJi9yzpQ47p-24">
          <mxGeometry relative="1" as="geometry" />
        </mxCell>
        <mxCell id="vLXWWGmgzCJi9yzpQ47p-8" value="Called from Firestore&lt;div&gt;&lt;b&gt;Admin&lt;/b&gt;&lt;/div&gt;" style="rounded=0;whiteSpace=wrap;html=1;" vertex="1" parent="1">
          <mxGeometry x="260" y="20" width="130" height="40" as="geometry" />
        </mxCell>
        <mxCell id="vLXWWGmgzCJi9yzpQ47p-18" value="Do nothing" style="text;html=1;align=center;verticalAlign=middle;whiteSpace=wrap;rounded=0;" vertex="1" parent="1">
          <mxGeometry y="260" width="60" height="30" as="geometry" />
        </mxCell>
        <mxCell id="vLXWWGmgzCJi9yzpQ47p-23" style="edgeStyle=orthogonalEdgeStyle;rounded=0;orthogonalLoop=1;jettySize=auto;html=1;exitX=0.5;exitY=1;exitDx=0;exitDy=0;entryX=0.5;entryY=0;entryDx=0;entryDy=0;" edge="1" parent="1" source="vLXWWGmgzCJi9yzpQ47p-21" target="vLXWWGmgzCJi9yzpQ47p-22">
          <mxGeometry relative="1" as="geometry" />
        </mxCell>
        <mxCell id="vLXWWGmgzCJi9yzpQ47p-60" value="Ok" style="edgeLabel;html=1;align=center;verticalAlign=middle;resizable=0;points=[];" vertex="1" connectable="0" parent="vLXWWGmgzCJi9yzpQ47p-23">
          <mxGeometry x="-0.3467" relative="1" as="geometry">
            <mxPoint as="offset" />
          </mxGeometry>
        </mxCell>
        <mxCell id="vLXWWGmgzCJi9yzpQ47p-21" value="Update&amp;nbsp;&lt;div&gt;Pedido in API&lt;/div&gt;" style="rhombus;whiteSpace=wrap;html=1;" vertex="1" parent="1">
          <mxGeometry x="51" y="320" width="107.5" height="90" as="geometry" />
        </mxCell>
        <mxCell id="vLXWWGmgzCJi9yzpQ47p-22" value="Update Redux State" style="rounded=0;whiteSpace=wrap;html=1;" vertex="1" parent="1">
          <mxGeometry x="39.75" y="450" width="130" height="40" as="geometry" />
        </mxCell>
        <mxCell id="vLXWWGmgzCJi9yzpQ47p-24" value="Update Redux State" style="rounded=0;whiteSpace=wrap;html=1;" vertex="1" parent="1">
          <mxGeometry x="260" y="110" width="130" height="40" as="geometry" />
        </mxCell>
        <mxCell id="vLXWWGmgzCJi9yzpQ47p-48" style="edgeStyle=orthogonalEdgeStyle;rounded=0;orthogonalLoop=1;jettySize=auto;html=1;exitX=0.5;exitY=1;exitDx=0;exitDy=0;entryX=0.5;entryY=0;entryDx=0;entryDy=0;" edge="1" parent="1" source="vLXWWGmgzCJi9yzpQ47p-26" target="vLXWWGmgzCJi9yzpQ47p-29">
          <mxGeometry relative="1" as="geometry" />
        </mxCell>
        <mxCell id="vLXWWGmgzCJi9yzpQ47p-26" value="Update Carrito&lt;div&gt;&lt;b&gt;Admin&lt;/b&gt;&lt;/div&gt;" style="rounded=0;whiteSpace=wrap;html=1;" vertex="1" parent="1">
          <mxGeometry x="480" y="20" width="130" height="40" as="geometry" />
        </mxCell>
        <mxCell id="vLXWWGmgzCJi9yzpQ47p-36" style="edgeStyle=orthogonalEdgeStyle;rounded=0;orthogonalLoop=1;jettySize=auto;html=1;exitX=0.5;exitY=1;exitDx=0;exitDy=0;entryX=0.5;entryY=0;entryDx=0;entryDy=0;" edge="1" parent="1" source="vLXWWGmgzCJi9yzpQ47p-29" target="vLXWWGmgzCJi9yzpQ47p-35">
          <mxGeometry relative="1" as="geometry" />
        </mxCell>
        <mxCell id="vLXWWGmgzCJi9yzpQ47p-38" value="Ok" style="edgeLabel;html=1;align=center;verticalAlign=middle;resizable=0;points=[];" vertex="1" connectable="0" parent="vLXWWGmgzCJi9yzpQ47p-36">
          <mxGeometry x="0.09" y="-4" relative="1" as="geometry">
            <mxPoint x="-1" y="-7" as="offset" />
          </mxGeometry>
        </mxCell>
        <mxCell id="vLXWWGmgzCJi9yzpQ47p-32" value="&lt;h1 style=&quot;margin-top: 0px;&quot;&gt;&lt;font style=&quot;font-size: 18px;&quot;&gt;V2&lt;/font&gt;&lt;/h1&gt;&lt;p&gt;In this version only State can change&lt;/p&gt;" style="text;html=1;whiteSpace=wrap;overflow=hidden;rounded=0;align=center;" vertex="1" parent="1">
          <mxGeometry x="597.5" y="60" width="128" height="91" as="geometry" />
        </mxCell>
        <mxCell id="vLXWWGmgzCJi9yzpQ47p-33" value="Update Redux State" style="rounded=0;whiteSpace=wrap;html=1;" vertex="1" parent="1">
          <mxGeometry x="478.75" y="410" width="130" height="40" as="geometry" />
        </mxCell>
        <mxCell id="vLXWWGmgzCJi9yzpQ47p-49" style="edgeStyle=orthogonalEdgeStyle;rounded=0;orthogonalLoop=1;jettySize=auto;html=1;exitX=0;exitY=0.5;exitDx=0;exitDy=0;entryX=1;entryY=0.5;entryDx=0;entryDy=0;dashed=1;" edge="1" parent="1" source="vLXWWGmgzCJi9yzpQ47p-29" target="vLXWWGmgzCJi9yzpQ47p-42">
          <mxGeometry relative="1" as="geometry" />
        </mxCell>
        <mxCell id="vLXWWGmgzCJi9yzpQ47p-50" value="Ok" style="edgeLabel;html=1;align=center;verticalAlign=middle;resizable=0;points=[];" vertex="1" connectable="0" parent="vLXWWGmgzCJi9yzpQ47p-49">
          <mxGeometry x="-0.7419" relative="1" as="geometry">
            <mxPoint as="offset" />
          </mxGeometry>
        </mxCell>
        <mxCell id="vLXWWGmgzCJi9yzpQ47p-53" style="edgeStyle=orthogonalEdgeStyle;rounded=0;orthogonalLoop=1;jettySize=auto;html=1;exitX=1;exitY=0.5;exitDx=0;exitDy=0;entryX=0.5;entryY=0;entryDx=0;entryDy=0;" edge="1" parent="1" source="vLXWWGmgzCJi9yzpQ47p-29" target="vLXWWGmgzCJi9yzpQ47p-52">
          <mxGeometry relative="1" as="geometry" />
        </mxCell>
        <mxCell id="vLXWWGmgzCJi9yzpQ47p-54" value="Fail" style="edgeLabel;html=1;align=center;verticalAlign=middle;resizable=0;points=[];" vertex="1" connectable="0" parent="vLXWWGmgzCJi9yzpQ47p-53">
          <mxGeometry x="-0.3321" y="-1" relative="1" as="geometry">
            <mxPoint as="offset" />
          </mxGeometry>
        </mxCell>
        <mxCell id="vLXWWGmgzCJi9yzpQ47p-29" value="Update in&amp;nbsp;&lt;div&gt;Firestore&lt;/div&gt;" style="rhombus;whiteSpace=wrap;html=1;" vertex="1" parent="1">
          <mxGeometry x="492.5" y="120" width="105" height="90" as="geometry" />
        </mxCell>
        <mxCell id="vLXWWGmgzCJi9yzpQ47p-37" style="edgeStyle=orthogonalEdgeStyle;rounded=0;orthogonalLoop=1;jettySize=auto;html=1;exitX=0.5;exitY=1;exitDx=0;exitDy=0;entryX=0.5;entryY=0;entryDx=0;entryDy=0;" edge="1" parent="1" source="vLXWWGmgzCJi9yzpQ47p-35" target="vLXWWGmgzCJi9yzpQ47p-33">
          <mxGeometry relative="1" as="geometry" />
        </mxCell>
        <mxCell id="vLXWWGmgzCJi9yzpQ47p-39" value="Ok" style="edgeLabel;html=1;align=center;verticalAlign=middle;resizable=0;points=[];" vertex="1" connectable="0" parent="vLXWWGmgzCJi9yzpQ47p-37">
          <mxGeometry x="-0.16" y="1" relative="1" as="geometry">
            <mxPoint as="offset" />
          </mxGeometry>
        </mxCell>
        <mxCell id="vLXWWGmgzCJi9yzpQ47p-56" style="edgeStyle=orthogonalEdgeStyle;rounded=0;orthogonalLoop=1;jettySize=auto;html=1;exitX=0;exitY=0.5;exitDx=0;exitDy=0;entryX=0.5;entryY=0;entryDx=0;entryDy=0;" edge="1" parent="1" source="vLXWWGmgzCJi9yzpQ47p-35" target="vLXWWGmgzCJi9yzpQ47p-47">
          <mxGeometry relative="1" as="geometry" />
        </mxCell>
        <mxCell id="vLXWWGmgzCJi9yzpQ47p-57" value="Fail" style="edgeLabel;html=1;align=center;verticalAlign=middle;resizable=0;points=[];" vertex="1" connectable="0" parent="vLXWWGmgzCJi9yzpQ47p-56">
          <mxGeometry x="-0.6582" y="-1" relative="1" as="geometry">
            <mxPoint as="offset" />
          </mxGeometry>
        </mxCell>
        <mxCell id="vLXWWGmgzCJi9yzpQ47p-35" value="Update&amp;nbsp;&lt;div&gt;Pedido in API&lt;/div&gt;" style="rhombus;whiteSpace=wrap;html=1;" vertex="1" parent="1">
          <mxGeometry x="490" y="260" width="107.5" height="90" as="geometry" />
        </mxCell>
        <mxCell id="vLXWWGmgzCJi9yzpQ47p-44" style="edgeStyle=orthogonalEdgeStyle;rounded=0;orthogonalLoop=1;jettySize=auto;html=1;exitX=0.25;exitY=0;exitDx=0;exitDy=0;entryX=0;entryY=0.5;entryDx=0;entryDy=0;" edge="1" parent="1" source="vLXWWGmgzCJi9yzpQ47p-42" target="vLXWWGmgzCJi9yzpQ47p-8">
          <mxGeometry relative="1" as="geometry" />
        </mxCell>
        <mxCell id="vLXWWGmgzCJi9yzpQ47p-46" style="edgeStyle=orthogonalEdgeStyle;rounded=0;orthogonalLoop=1;jettySize=auto;html=1;exitX=0.5;exitY=1;exitDx=0;exitDy=0;entryX=1;entryY=0;entryDx=0;entryDy=0;" edge="1" parent="1" source="vLXWWGmgzCJi9yzpQ47p-42" target="vLXWWGmgzCJi9yzpQ47p-22">
          <mxGeometry relative="1" as="geometry" />
        </mxCell>
        <mxCell id="vLXWWGmgzCJi9yzpQ47p-42" value="SNAPSHOT" style="rounded=0;whiteSpace=wrap;html=1;dashed=1;" vertex="1" parent="1">
          <mxGeometry x="210" y="270" width="120" height="40" as="geometry" />
        </mxCell>
        <mxCell id="vLXWWGmgzCJi9yzpQ47p-58" style="edgeStyle=orthogonalEdgeStyle;rounded=0;orthogonalLoop=1;jettySize=auto;html=1;exitX=0;exitY=0.5;exitDx=0;exitDy=0;entryX=0.75;entryY=1;entryDx=0;entryDy=0;dashed=1;" edge="1" parent="1" source="vLXWWGmgzCJi9yzpQ47p-47" target="vLXWWGmgzCJi9yzpQ47p-42">
          <mxGeometry relative="1" as="geometry" />
        </mxCell>
        <mxCell id="vLXWWGmgzCJi9yzpQ47p-47" value="Update Firestore from&amp;nbsp;&lt;div&gt;Redux State&lt;/div&gt;" style="rounded=0;whiteSpace=wrap;html=1;" vertex="1" parent="1">
          <mxGeometry x="362.5" y="340" width="130" height="40" as="geometry" />
        </mxCell>
        <mxCell id="vLXWWGmgzCJi9yzpQ47p-52" value="Do nothing" style="text;html=1;align=center;verticalAlign=middle;whiteSpace=wrap;rounded=0;" vertex="1" parent="1">
          <mxGeometry x="650" y="190" width="60" height="30" as="geometry" />
        </mxCell>
        <mxCell id="vLXWWGmgzCJi9yzpQ47p-62" value="&lt;h1 style=&quot;margin-top: 0px;&quot;&gt;&lt;font style=&quot;font-size: 17px;&quot;&gt;Firestore &quot;Pedidos&quot;&lt;/font&gt;&lt;/h1&gt;&lt;p&gt;Ese es el nombre de la colecciÃ³n donde se guardan los nuevos pedidos y sus actualizaciones&lt;/p&gt;" style="text;html=1;whiteSpace=wrap;overflow=hidden;rounded=0;" vertex="1" parent="1">
          <mxGeometry x="240" y="400" width="180" height="100" as="geometry" />
        </mxCell>
      </root>
    </mxGraphModel>
  </diagram>
</mxfile>
